# xmcd CD database file
#
# Track frame offsets:
#	150
#	25117
#	42078
#	56543
#	78149
#	99209
#	115062
#	130630
#	148071
#	169795
#	191489
#	215978
#	233349
#	253733
#	274304
#
# Disc length: 3814 seconds
#
# Revision: 0
# Processed by: cddbd v1.5.1PL0 Copyright (c) Steve Scherf et al.
# Submitted via: CDex 1.51
#
DISCID=c60ee40f
DTITLE=Enrique Norris - Logomaquia
DYEAR=2004
DGENRE=Jazz
TTITLE0=Cinco fósforos
TTITLE1=Logomaquia (Tk 2) 
TTITLE2=Otoño Ingenuo (Tk 2)
TTITLE3=Timbre
TTITLE4=Es hoy
TTITLE5=Deeploma
TTITLE6=El tío Rodesio
TTITLE7=Gotas arrítmicas (Tk 2)
TTITLE8=;Atrás, muy atrás (Tk 1)
TTITLE9=Sentimiento Cuántico (Tk 2)
TTITLE10=Poleas
TTITLE11=Gusanito Metálico
TTITLE12=Logomaquia (Tk 1)
TTITLE13=Otoño Ingénuo (Tk 1)
TTITLE14=Gotas arrítmicas (Tk 1)
EXTD=YEAR: 2004
EXTT0=
EXTT1=
EXTT2=
EXTT3=
EXTT4=
EXTT5=
EXTT6=
EXTT7=
EXTT8=
EXTT9=
EXTT10=
EXTT11=
EXTT12=
EXTT13=
EXTT14=
PLAYORDER=
